<?xml version="1.0" encoding="utf-8"?>
<!-- Generator: Adobe Illustrator 27.0.0, SVG Export Plug-In . SVG Version: 6.00 Build 0)  -->
<svg version="1.1" id="mdi-home-circle" xmlns="http://www.w3.org/2000/svg" xmlns:xlink="http://www.w3.org/1999/xlink" x="0px"
	 y="0px" viewBox="0 0 16 16" style="enable-background:new 0 0 16 16;" xml:space="preserve">
<path d="M13.7,2.3C12.2,0.8,10.1,0,8,0C5.9,0,3.8,0.8,2.4,2.3C0.8,3.8,0,5.9,0,8c0,2.1,0.8,4.2,2.3,5.6C3.8,15.2,5.9,16,8,16
	c2.1,0,4.2-0.8,5.6-2.3C15.2,12.2,16,10.1,16,8C16,5.9,15.2,3.8,13.7,2.3 M12,8v4.8H9.2v-4H6.8v4H4V8H2.4L8,2.4L14,8H12z"/>
</svg>
