<?xml version="1.0" encoding="utf-8"?>
<!-- Generator: Adobe Illustrator 27.0.0, SVG Export Plug-In . SVG Version: 6.00 Build 0)  -->
<svg version="1.1" id="Layer_1" xmlns="http://www.w3.org/2000/svg" xmlns:xlink="http://www.w3.org/1999/xlink" x="0px" y="0px"
	 viewBox="0 0 16 16" style="enable-background:new 0 0 16 16;" xml:space="preserve">
<g>
	<g>
		<path d="M8,0C3.6,0,0,3.6,0,8s3.6,8,8,8c4.4,0,8-3.6,8-8S12.4,0,8,0z M12.2,4.2L9.7,9C9.5,9.3,9.3,9.5,9,9.7l-4.9,2.5
			c-0.1,0.1-0.2,0-0.3-0.1c-0.1-0.1-0.1-0.2-0.1-0.3L6.3,7C6.5,6.7,6.7,6.5,7,6.3l4.9-2.5c0.1-0.1,0.2,0,0.3,0.1
			C12.3,3.9,12.3,4,12.2,4.2z"/>
	</g>
</g>
</svg>
